<?xml version="1.0" standalone="no"?>
<!DOCTYPE svg PUBLIC "-//W3C//DTD SVG 20010904//EN"
 "http://www.w3.org/TR/2001/REC-SVG-20010904/DTD/svg10.dtd">
<svg version="1.0" xmlns="http://www.w3.org/2000/svg"
 width="902.000000pt" height="902.000000pt" viewBox="0 0 902.000000 902.000000"
 preserveAspectRatio="xMidYMid meet">
<metadata>
Created by potrace 1.14, written by Peter Selinger 2001-2017
</metadata>
<g transform="translate(0.000000,902.000000) scale(0.100000,-0.100000)"
fill="#000000" stroke="none">
<path d="M4477 8768 c-67 -127 -117 -228 -116 -234 0 -4 -3 -10 -8 -13 -5 -3
-24 -37 -43 -76 -19 -38 -38 -72 -41 -75 -3 -3 -16 -29 -29 -57 -13 -29 -28
-53 -32 -53 -5 0 -7 -4 -3 -9 3 -5 -2 -17 -11 -25 -8 -9 -12 -16 -8 -16 3 0 2
-6 -4 -12 -5 -7 -42 -76 -82 -153 -40 -77 -77 -146 -82 -152 -6 -7 -7 -13 -4
-13 4 0 0 -7 -8 -16 -9 -8 -16 -24 -16 -34 0 -10 -4 -20 -8 -22 -5 -1 -53 -88
-107 -193 -54 -104 -117 -226 -140 -270 -23 -44 -75 -143 -115 -220 -40 -77
-97 -186 -126 -242 -118 -225 -164 -314 -234 -448 -40 -77 -81 -155 -92 -172
-11 -18 -16 -33 -12 -33 4 0 0 -8 -8 -17 -8 -10 -37 -61 -63 -113 -27 -52 -56
-110 -66 -128 -30 -52 -69 -131 -70 -139 0 -5 -6 -15 -13 -23 -8 -8 -22 -33
-32 -55 -10 -22 -28 -57 -41 -77 -13 -21 -20 -38 -17 -38 4 0 2 -6 -4 -12 -5
-7 -33 -58 -62 -113 -29 -55 -61 -115 -72 -132 -11 -18 -16 -33 -11 -33 4 0 4
-4 -2 -8 -5 -4 -26 -38 -45 -77 -19 -38 -37 -72 -40 -75 -3 -3 -30 -54 -61
-115 -31 -60 -82 -159 -114 -220 -32 -60 -94 -180 -138 -265 -44 -85 -85 -158
-91 -162 -6 -4 -7 -8 -3 -8 4 0 -4 -21 -19 -48 -24 -42 -144 -273 -228 -437
-17 -33 -34 -61 -38 -63 -5 -2 -8 -11 -8 -21 0 -9 -4 -21 -9 -26 -9 -11 -49
-85 -176 -330 -43 -82 -82 -154 -86 -160 -5 -5 -9 -17 -9 -26 0 -10 -4 -19 -8
-21 -4 -1 -30 -48 -57 -103 -28 -55 -52 -102 -55 -105 -6 -5 -37 -64 -98 -185
-19 -38 -40 -73 -46 -77 -6 -4 -8 -8 -4 -8 4 0 -3 -19 -16 -43 -40 -73 -154
-291 -214 -409 -31 -62 -59 -115 -62 -118 -3 -3 -26 -45 -51 -95 -25 -49 -83
-162 -129 -250 -46 -88 -99 -191 -119 -230 -20 -38 -38 -72 -41 -75 -3 -3 -24
-43 -48 -90 -131 -259 -187 -366 -195 -371 -5 -3 -9 -12 -10 -20 -2 -8 -7 -21
-12 -29 -5 -8 -34 -62 -63 -120 -79 -154 -153 -293 -165 -308 -5 -6 -6 -12 -2
-12 4 0 3 -6 -3 -13 -10 -12 -28 -46 -166 -310 l-67 -127 754 0 755 0 13 33
c7 17 39 85 70 150 32 64 55 117 51 117 -4 0 -2 4 3 8 6 4 15 18 22 32 6 14
40 86 76 160 35 74 78 164 94 200 17 36 66 137 109 225 43 88 78 162 79 165 2
5 56 118 151 315 31 66 58 122 59 125 0 3 22 48 47 100 25 52 69 145 97 205
83 175 86 180 94 183 4 2 7 8 7 14 0 12 26 69 91 202 22 43 39 84 39 91 0 7 3
15 8 17 6 2 63 112 67 128 1 7 43 95 123 260 138 285 192 401 192 411 0 5 5 9
12 9 6 0 8 3 5 6 -4 4 6 30 22 58 15 28 28 54 30 58 3 15 85 183 90 188 3 3 7
10 8 15 1 6 31 72 67 147 36 76 66 142 66 148 0 5 5 10 10 10 6 0 10 5 10 10
0 6 21 54 46 108 125 261 156 326 209 437 140 293 165 346 165 355 0 6 4 10
10 10 5 0 9 3 8 7 -1 8 20 55 138 298 37 77 68 142 69 145 4 13 30 66 35 70 3
3 6 10 7 15 1 6 36 82 79 170 43 88 79 162 79 165 0 3 27 57 58 121 31 64 57
122 57 128 0 6 5 11 10 11 6 0 10 6 10 14 0 8 21 56 46 107 117 237 158 325
157 336 0 7 3 10 8 7 5 -3 9 -10 9 -15 0 -9 77 -173 171 -364 21 -44 39 -86
39 -92 0 -7 5 -13 10 -13 6 0 10 -5 10 -11 0 -6 26 -65 58 -132 33 -67 83
-171 112 -232 29 -60 73 -153 98 -205 26 -52 47 -97 47 -100 1 -3 33 -72 73
-153 40 -82 72 -153 72 -158 0 -5 4 -9 10 -9 5 0 9 -3 8 -7 -1 -5 10 -35 26
-68 16 -33 53 -112 83 -175 30 -63 70 -145 89 -183 19 -37 34 -74 34 -82 0 -8
4 -15 9 -15 5 0 13 -10 17 -22 7 -23 52 -120 189 -403 100 -207 119 -248 117
-257 -1 -5 2 -8 6 -8 5 0 15 -18 22 -40 7 -22 17 -40 22 -40 4 0 8 -5 8 -11 0
-6 19 -50 42 -98 23 -47 42 -88 43 -91 1 -3 26 -57 57 -120 31 -63 79 -164
108 -225 80 -169 138 -290 195 -407 29 -59 51 -109 49 -111 -3 -2 2 -10 11
-17 8 -7 15 -17 15 -23 0 -5 22 -55 49 -111 27 -56 79 -164 116 -241 64 -133
99 -207 199 -417 24 -51 78 -164 120 -251 42 -87 76 -163 76 -168 0 -5 5 -9
10 -9 6 0 10 -7 10 -16 0 -14 24 -68 51 -114 5 -8 12 -22 15 -30 7 -16 66
-141 162 -340 138 -289 167 -350 209 -440 25 -52 64 -134 87 -182 l41 -88 752
0 753 0 -58 113 c-31 61 -60 113 -64 115 -5 2 -8 12 -8 22 0 10 -3 20 -7 22
-5 2 -24 35 -44 73 -56 111 -210 404 -246 470 -18 33 -35 67 -39 75 -3 8 -10
24 -16 35 -6 11 -34 63 -61 115 -135 259 -160 306 -169 318 -6 6 -7 12 -3 12
4 0 3 6 -3 13 -5 6 -36 62 -67 122 -32 61 -79 151 -105 200 -26 50 -83 158
-125 240 -43 83 -100 193 -127 245 -27 52 -54 99 -59 105 -5 5 -9 17 -9 26 0
10 -3 19 -7 21 -8 3 -18 20 -106 193 -28 55 -55 103 -60 106 -5 3 -9 10 -9 15
0 12 -19 51 -81 169 -30 55 -78 147 -107 205 -30 58 -59 108 -65 112 -5 4 -7
8 -2 8 4 0 -3 17 -16 38 -13 20 -43 78 -67 127 -25 50 -48 92 -52 93 -4 2 -8
12 -8 22 0 10 -3 20 -8 22 -4 2 -30 48 -58 103 -55 108 -143 276 -232 445 -79
151 -156 297 -227 435 -66 128 -154 296 -240 460 -29 55 -85 163 -125 240 -40
77 -94 181 -120 230 -53 100 -131 250 -240 460 -40 77 -90 172 -110 210 -21
39 -66 126 -101 195 -35 69 -68 128 -74 132 -5 4 -6 8 -1 8 5 0 4 6 -2 13 -6
6 -31 51 -55 98 -52 99 -195 375 -241 464 -17 33 -33 62 -36 65 -3 3 -32 59
-65 125 -33 66 -64 123 -70 127 -5 4 -6 8 -1 8 5 0 4 6 -2 13 -5 6 -30 50 -55
97 -97 186 -208 400 -254 490 -26 52 -50 97 -53 100 -3 3 -28 50 -56 105 -47
91 -77 149 -236 455 -27 52 -53 96 -57 98 -3 1 -19 -21 -34 -50z"/>
</g>
</svg>
